# xmcd
#
# Track frame offsets: 
#        150
#        8735
#        28412
#        48612
#        69180
#        86960
#        108737
#        124637
#        146987
#        169100
#        189962
#        195537
#        217375
#        239280
#        263935
#        283235
#        301207
#        311447
#
# Disc length: 4229 seconds
#
# Revision: 0
# Processed by: cddbd v1.5.2PL0 Copyright (c) Steve Scherf et al.
# Submitted via: ExactAudioCopy v0.95b4
#
DISCID=14108312
DTITLE=Frank T - Los pajaros no pueden vivir en el agua porque no son 
DTITLE=peces
DYEAR=1998
DGENRE=Hip-Hop
TTITLE0=Principio
TTITLE1=Los pajaros no pueden vivir en el agua porque no son peces
TTITLE2=Consejos ofrecidos para todos vosotros de Frank T
TTITLE3=El tiempo de los intrusos
TTITLE4=Y al final yo seguire siendo quien soy
TTITLE5=El hombre luchador
TTITLE6=Llegara la hora de consultar la hora y decir,ya es la hora
TTITLE7=La gran obra maestra
TTITLE8=Rap autentico y verdadero (sabor Hip Hop)
TTITLE9=Andate con ojo chavalito
TTITLE10=Galaxia empirica
TTITLE11=Aqui no pasa nada
TTITLE12=Teorias,filosofias,explicaciones, justificaciones, racistas, 
TTITLE12=topicos y el arroz
TTITLE13=La rebelion de los x'isianos
TTITLE14=Flota
TTITLE15=Poesia dedicada a los oprimidos
TTITLE16=Abre la puerta de tu mente
TTITLE17=El final
EXTD=
EXTT0=
EXTT1=
EXTT2=
EXTT3=
EXTT4=
EXTT5=
EXTT6=
EXTT7=
EXTT8=
EXTT9=
EXTT10=
EXTT11=
EXTT12=
EXTT13=
EXTT14=
EXTT15=
EXTT16=
EXTT17=
PLAYORDER=
